<svg xmlns="http://www.w3.org/2000/svg" viewBox="0 0 1024 1024" role="img" aria-label="Forg3">
  <defs>
    <linearGradient id="bg" x1="150" y1="96" x2="874" y2="928" gradientUnits="userSpaceOnUse">
      <stop offset="0" stop-color="#f8fbff"/>
      <stop offset="1" stop-color="#e7edf4"/>
    </linearGradient>
    <linearGradient id="steel" x1="286" y1="206" x2="670" y2="596" gradientUnits="userSpaceOnUse">
      <stop offset="0" stop-color="#365c7a"/>
      <stop offset="1" stop-color="#102c45"/>
    </linearGradient>
    <linearGradient id="orange" x1="192" y1="216" x2="822" y2="816" gradientUnits="userSpaceOnUse">
      <stop offset="0" stop-color="#f27a25"/>
      <stop offset="1" stop-color="#d95f18"/>
    </linearGradient>
  </defs>

  <rect width="1024" height="1024" rx="214" fill="url(#bg)"/>
  <path d="M248 298 505 178l274 126v333L505 842 230 657l44-306z" fill="none" stroke="url(#orange)" stroke-width="44" stroke-linejoin="round"/>

  <g transform="rotate(-27 518 295)">
    <rect x="320" y="248" width="294" height="62" rx="31" fill="url(#steel)"/>
    <rect x="564" y="184" width="158" height="128" rx="26" fill="#24465f"/>
    <rect x="400" y="306" width="62" height="214" rx="31" fill="url(#steel)"/>
  </g>
  <path d="M724 147v-62M777 177l45-45M801 239h64M675 177l-45-45" fill="none" stroke="#f27a25" stroke-width="26" stroke-linecap="round"/>

  <text x="214" y="666" fill="#102c45" font-family="Arial Black, Arial, Helvetica, sans-serif" font-size="342" font-weight="900" letter-spacing="0">F</text>
  <text x="516" y="694" fill="#f27a25" font-family="Arial Black, Arial, Helvetica, sans-serif" font-size="396" font-weight="900" letter-spacing="0">3</text>
  <path d="M288 725c84-72 150 48 228-15 72-58 146-54 224 8" fill="none" stroke="#102c45" stroke-width="36" stroke-linecap="round"/>
  <path d="M760 566 856 508l-36 108z" fill="#102c45"/>
  <path d="M820 532 724 710" fill="none" stroke="#102c45" stroke-width="30" stroke-linecap="round"/>
</svg>
